<svg width="31" height="30" viewBox="0 0 31 30" fill="none" xmlns="http://www.w3.org/2000/svg">
<path d="M13.3529 0.768609C13.9428 0.273752 14.7079 0 15.5011 0C16.2942 0 17.0593 0.273752 17.6493 0.768609L29.435 10.6551C29.7701 10.9364 30.0381 11.2804 30.2216 11.6647C30.405 12.0489 30.4999 12.4649 30.5 12.8857V26.9992C30.5 27.7951 30.1614 28.5583 29.5586 29.1211C28.9558 29.6838 28.1382 30 27.2857 30H21.9286C21.0761 30 20.2585 29.6838 19.6557 29.1211C19.0529 28.5583 18.7143 27.7951 18.7143 26.9992V19.9975C18.7143 19.7322 18.6014 19.4778 18.4005 19.2902C18.1995 19.1026 17.927 18.9972 17.6429 18.9972H13.3571C13.073 18.9972 12.8005 19.1026 12.5995 19.2902C12.3986 19.4778 12.2857 19.7322 12.2857 19.9975V26.9992C12.2857 27.7951 11.9471 28.5583 11.3443 29.1211C10.7415 29.6838 9.92391 30 9.07143 30H3.71429C2.8618 30 2.04424 29.6838 1.44144 29.1211C0.838647 28.5583 0.5 27.7951 0.5 26.9992V12.8857C0.5 12.0355 0.885714 11.2253 1.56714 10.6551L13.3529 0.768609ZM16.2157 2.25699C16.0191 2.09222 15.7642 2.00108 15.5 2.00108C15.2358 2.00108 14.9809 2.09222 14.7843 2.25699L2.99857 12.1435C2.88692 12.2371 2.79757 12.3515 2.73629 12.4793C2.67501 12.6072 2.64318 12.7456 2.64286 12.8857V26.9992C2.64286 27.2645 2.75574 27.5189 2.95667 27.7065C3.1576 27.8941 3.43013 27.9995 3.71429 27.9995H9.07143C9.35559 27.9995 9.62811 27.8941 9.82904 27.7065C10.03 27.5189 10.1429 27.2645 10.1429 26.9992V19.9975C10.1429 19.2016 10.4815 18.4384 11.0843 17.8756C11.6871 17.3129 12.5047 16.9967 13.3571 16.9967H17.6429C18.4953 16.9967 19.3129 17.3129 19.9157 17.8756C20.5185 18.4384 20.8571 19.2016 20.8571 19.9975V26.9992C20.8571 27.2645 20.97 27.5189 21.171 27.7065C21.3719 27.8941 21.6444 27.9995 21.9286 27.9995H27.2857C27.5699 27.9995 27.8424 27.8941 28.0433 27.7065C28.2443 27.5189 28.3571 27.2645 28.3571 26.9992V12.8857C28.3568 12.7456 28.325 12.6072 28.2637 12.4793C28.2024 12.3515 28.1131 12.2371 28.0014 12.1435L16.2157 2.25699Z" fill="#152E2E"/>
</svg>
