<svg width="30" height="30" viewBox="0 0 30 30" fill="none" xmlns="http://www.w3.org/2000/svg">
<path d="M12.8529 0.768609C13.4428 0.273752 14.2079 0 15.0011 0C15.7942 0 16.5593 0.273752 17.1493 0.768609L28.935 10.6551C29.2701 10.9364 29.5381 11.2804 29.7216 11.6647C29.905 12.0489 29.9999 12.4649 30 12.8857V26.9992C30 27.7951 29.6614 28.5583 29.0586 29.1211C28.4558 29.6838 27.6382 30 26.7857 30H21.4286C20.5761 30 19.7585 29.6838 19.1557 29.1211C18.5529 28.5583 18.2143 27.7951 18.2143 26.9992V19.9975C18.2143 19.7322 18.1014 19.4778 17.9005 19.2902C17.6995 19.1026 17.427 18.9972 17.1429 18.9972H12.8571C12.573 18.9972 12.3005 19.1026 12.0995 19.2902C11.8986 19.4778 11.7857 19.7322 11.7857 19.9975V26.9992C11.7857 27.7951 11.4471 28.5583 10.8443 29.1211C10.2415 29.6838 9.42391 30 8.57143 30H3.21429C2.3618 30 1.54424 29.6838 0.941443 29.1211C0.338647 28.5583 0 27.7951 0 26.9992V12.8857C0 12.0355 0.385714 11.2253 1.06714 10.6551L12.8529 0.768609ZM15.7157 2.25699C15.5191 2.09222 15.2642 2.00108 15 2.00108C14.7358 2.00108 14.4809 2.09222 14.2843 2.25699L2.49857 12.1435C2.38692 12.2371 2.29757 12.3515 2.23629 12.4793C2.17501 12.6072 2.14318 12.7456 2.14286 12.8857V26.9992C2.14286 27.2645 2.25574 27.5189 2.45667 27.7065C2.6576 27.8941 2.93013 27.9995 3.21429 27.9995H8.57143C8.85559 27.9995 9.12811 27.8941 9.32904 27.7065C9.52997 27.5189 9.64286 27.2645 9.64286 26.9992V19.9975C9.64286 19.2016 9.9815 18.4384 10.5843 17.8756C11.1871 17.3129 12.0047 16.9967 12.8571 16.9967H17.1429C17.9953 16.9967 18.8129 17.3129 19.4157 17.8756C20.0185 18.4384 20.3571 19.2016 20.3571 19.9975V26.9992C20.3571 27.2645 20.47 27.5189 20.671 27.7065C20.8719 27.8941 21.1444 27.9995 21.4286 27.9995H26.7857C27.0699 27.9995 27.3424 27.8941 27.5433 27.7065C27.7443 27.5189 27.8571 27.2645 27.8571 26.9992V12.8857C27.8568 12.7456 27.825 12.6072 27.7637 12.4793C27.7024 12.3515 27.6131 12.2371 27.5014 12.1435L15.7157 2.25699Z" fill="#152E2E"/>
</svg>
