<svg width="14" height="14" viewBox="0 0 14 14" fill="none" xmlns="http://www.w3.org/2000/svg">
<path d="M4.20004 0.333252H9.80004C11.9334 0.333252 13.6667 2.06659 13.6667 4.19992V9.79992C13.6667 10.8254 13.2593 11.8089 12.5342 12.5341C11.809 13.2592 10.8255 13.6666 9.80004 13.6666H4.20004C2.06671 13.6666 0.333374 11.9333 0.333374 9.79992V4.19992C0.333374 3.17442 0.740754 2.19091 1.46589 1.46577C2.19104 0.740632 3.17454 0.333252 4.20004 0.333252ZM4.06671 1.66659C3.43019 1.66659 2.81974 1.91944 2.36965 2.36953C1.91956 2.81962 1.66671 3.43007 1.66671 4.06659V9.93325C1.66671 11.2599 2.74004 12.3333 4.06671 12.3333H9.93337C10.5699 12.3333 11.1803 12.0804 11.6304 11.6303C12.0805 11.1802 12.3334 10.5698 12.3334 9.93325V4.06659C12.3334 2.73992 11.26 1.66659 9.93337 1.66659H4.06671ZM10.5 2.66659C10.7211 2.66659 10.933 2.75438 11.0893 2.91066C11.2456 3.06694 11.3334 3.2789 11.3334 3.49992C11.3334 3.72093 11.2456 3.93289 11.0893 4.08917C10.933 4.24545 10.7211 4.33325 10.5 4.33325C10.279 4.33325 10.0671 4.24545 9.91078 4.08917C9.7545 3.93289 9.66671 3.72093 9.66671 3.49992C9.66671 3.2789 9.7545 3.06694 9.91078 2.91066C10.0671 2.75438 10.279 2.66659 10.5 2.66659ZM7.00004 3.66659C7.8841 3.66659 8.73194 4.01777 9.35706 4.6429C9.98218 5.26802 10.3334 6.11586 10.3334 6.99992C10.3334 7.88397 9.98218 8.73182 9.35706 9.35694C8.73194 9.98206 7.8841 10.3333 7.00004 10.3333C6.11599 10.3333 5.26814 9.98206 4.64302 9.35694C4.0179 8.73182 3.66671 7.88397 3.66671 6.99992C3.66671 6.11586 4.0179 5.26802 4.64302 4.6429C5.26814 4.01777 6.11599 3.66659 7.00004 3.66659ZM7.00004 4.99992C6.46961 4.99992 5.9609 5.21063 5.58583 5.5857C5.21075 5.96078 5.00004 6.46949 5.00004 6.99992C5.00004 7.53035 5.21075 8.03906 5.58583 8.41413C5.9609 8.78921 6.46961 8.99992 7.00004 8.99992C7.53047 8.99992 8.03918 8.78921 8.41426 8.41413C8.78933 8.03906 9.00004 7.53035 9.00004 6.99992C9.00004 6.46949 8.78933 5.96078 8.41426 5.5857C8.03918 5.21063 7.53047 4.99992 7.00004 4.99992Z" fill="#F8F8F8"/>
</svg>
