<svg width="12" height="14" viewBox="0 0 12 14" fill="none" xmlns="http://www.w3.org/2000/svg">
<path d="M5.99996 6.99992C6.36663 6.99992 6.68063 6.86925 6.94196 6.60792C7.20329 6.34659 7.33374 6.03281 7.33329 5.66659C7.33329 5.29992 7.20263 4.98592 6.94129 4.72459C6.67996 4.46325 6.36618 4.33281 5.99996 4.33325C5.63329 4.33325 5.31929 4.46392 5.05796 4.72525C4.79663 4.98659 4.66618 5.30036 4.66663 5.66659C4.66663 6.03325 4.79729 6.34725 5.05863 6.60859C5.31996 6.86992 5.63374 7.00036 5.99996 6.99992ZM5.99996 11.8999C7.35552 10.6555 8.36107 9.52481 9.01663 8.50792C9.67218 7.49103 9.99996 6.58836 9.99996 5.79992C9.99996 4.58881 9.61374 3.59725 8.84129 2.82525C8.06885 2.05325 7.12174 1.66703 5.99996 1.66659C4.87774 1.66659 3.9304 2.05281 3.15796 2.82525C2.38551 3.5977 1.99951 4.58925 1.99996 5.79992C1.99996 6.58881 2.32774 7.4917 2.98329 8.50858C3.63885 9.52547 4.6444 10.6559 5.99996 11.8999ZM5.99996 13.4166C5.91107 13.4166 5.82218 13.3999 5.73329 13.3666C5.6444 13.3333 5.56663 13.2888 5.49996 13.2333C3.87774 11.7999 2.66663 10.4693 1.86663 9.24125C1.06663 8.01325 0.666626 6.86614 0.666626 5.79992C0.666626 4.13325 1.20285 2.80547 2.27529 1.81659C3.34774 0.827696 4.58929 0.333252 5.99996 0.333252C7.41107 0.333252 8.65285 0.827696 9.72529 1.81659C10.7977 2.80547 11.3337 4.13325 11.3333 5.79992C11.3333 6.86659 10.9333 8.01392 10.1333 9.24192C9.33329 10.4699 8.12218 11.8004 6.49996 13.2333C6.43329 13.2888 6.35552 13.3333 6.26663 13.3666C6.17774 13.3999 6.08885 13.4166 5.99996 13.4166Z" fill="#F8F8F8"/>
</svg>
