<svg width="31" height="22" viewBox="0 0 31 22" fill="none" xmlns="http://www.w3.org/2000/svg">
<path d="M6.50001 3.5H1.67001C1.11501 3.5 0.560009 3.98 0.635009 4.76L2.97501 19.745C2.97501 19.745 5.75001 8.705 6.29001 6.05C6.45501 5.255 7.20501 5 7.76001 5H15.5C15.5 5 14.45 1.88 14.345 1.535C14.165 0.875 13.835 0.5 13.175 0.5H8.21001C7.67001 0.5 7.16001 0.845 7.01001 1.46C6.87501 2.06 6.50001 3.5 6.50001 3.5ZM13.82 3.5H7.82001C7.82001 3.5 8.45001 2 9.12501 2H12.32C13.04 2 13.82 3.5 13.82 3.5ZM4.50501 20.375C4.04001 21.08 3.36501 21.5 2.61501 21.5H26.21C27.02 21.5 27.59 21.035 27.755 20.255C28.415 16.97 30.275 7.595 30.275 7.595C30.38 6.845 29.825 6.5 29.345 6.5H24.5V4.295C24.5 4.055 24.11 3.5 23.51 3.5H17.87C17.09 3.5 16.565 4.37 16.565 4.37L15.5 6.5H8.88501C8.40501 6.5 7.94001 6.785 7.85001 7.25C7.85001 7.25 5.46501 17.3 5.27001 18.245C5.16501 18.8 4.94001 19.73 4.50501 20.375ZM23.57 6.5H17C17 6.5 17.87 5 18.695 5H22.13C23.195 5 23.57 6.5 23.57 6.5Z" fill="#152E2E"/>
</svg>
