<svg width="43" height="30" viewBox="0 0 43 30" fill="none" xmlns="http://www.w3.org/2000/svg">
<path d="M8.38834 4.28571H1.48834C0.695479 4.28571 -0.0973777 4.97143 0.00976515 6.08571L3.35262 27.4929C3.35262 27.4929 7.31691 11.7214 8.08834 7.92857C8.32405 6.79286 9.39548 6.42857 10.1883 6.42857H21.2455C21.2455 6.42857 19.7455 1.97143 19.5955 1.47857C19.3383 0.535714 18.8669 0 17.9241 0H10.8312C10.0598 0 9.33119 0.492857 9.11691 1.37143C8.92405 2.22857 8.38834 4.28571 8.38834 4.28571ZM18.8455 4.28571H10.2741C10.2741 4.28571 11.1741 2.14286 12.1383 2.14286H16.7026C17.7312 2.14286 18.8455 4.28571 18.8455 4.28571ZM5.53834 28.3929C4.87405 29.4 3.90977 30 2.83834 30H36.5455C37.7026 30 38.5169 29.3357 38.7526 28.2214C39.6955 23.5286 42.3526 10.1357 42.3526 10.1357C42.5026 9.06429 41.7098 8.57143 41.024 8.57143H34.1026V5.42143C34.1026 5.07857 33.5455 4.28571 32.6883 4.28571H24.6312C23.5169 4.28571 22.7669 5.52857 22.7669 5.52857L21.2455 8.57143H11.7955C11.1098 8.57143 10.4455 8.97857 10.3169 9.64286C10.3169 9.64286 6.90976 24 6.63119 25.35C6.48119 26.1429 6.15976 27.4714 5.53834 28.3929ZM32.7741 8.57143H23.3883C23.3883 8.57143 24.6312 6.42857 25.8098 6.42857H30.7169C32.2383 6.42857 32.7741 8.57143 32.7741 8.57143Z" fill="#152E2E"/>
</svg>
