<svg width="26" height="30" viewBox="0 0 26 30" fill="none" xmlns="http://www.w3.org/2000/svg">
<path d="M24.375 7.5H19.5V6C19.5 4.4087 18.8152 2.88258 17.5962 1.75736C16.3772 0.632141 14.7239 0 13 0C11.2761 0 9.62279 0.632141 8.40381 1.75736C7.18482 2.88258 6.5 4.4087 6.5 6V7.5H1.625C1.19402 7.5 0.780698 7.65804 0.475952 7.93934C0.171205 8.22064 0 8.60218 0 9V25.5C0 26.6935 0.513615 27.8381 1.42785 28.682C2.34209 29.5259 3.58207 30 4.875 30H21.125C22.4179 30 23.6579 29.5259 24.5721 28.682C25.4864 27.8381 26 26.6935 26 25.5V9C26 8.60218 25.8288 8.22064 25.524 7.93934C25.2193 7.65804 24.806 7.5 24.375 7.5ZM9.75 6C9.75 5.20435 10.0924 4.44129 10.7019 3.87868C11.3114 3.31607 12.138 3 13 3C13.862 3 14.6886 3.31607 15.2981 3.87868C15.9076 4.44129 16.25 5.20435 16.25 6V7.5H9.75V6ZM22.75 25.5C22.75 25.8978 22.5788 26.2794 22.274 26.5607C21.9693 26.842 21.556 27 21.125 27H4.875C4.44402 27 4.0307 26.842 3.72595 26.5607C3.42121 26.2794 3.25 25.8978 3.25 25.5V10.5H6.5V12C6.5 12.3978 6.67121 12.7794 6.97595 13.0607C7.2807 13.342 7.69402 13.5 8.125 13.5C8.55598 13.5 8.9693 13.342 9.27405 13.0607C9.57879 12.7794 9.75 12.3978 9.75 12V10.5H16.25V12C16.25 12.3978 16.4212 12.7794 16.726 13.0607C17.0307 13.342 17.444 13.5 17.875 13.5C18.306 13.5 18.7193 13.342 19.024 13.0607C19.3288 12.7794 19.5 12.3978 19.5 12V10.5H22.75V25.5Z" fill="#152E2E"/>
</svg>
