<svg width="27" height="30" viewBox="0 0 27 30" fill="none" xmlns="http://www.w3.org/2000/svg">
<path d="M24.875 7.5H20V6C20 4.4087 19.3152 2.88258 18.0962 1.75736C16.8772 0.632141 15.2239 0 13.5 0C11.7761 0 10.1228 0.632141 8.90381 1.75736C7.68482 2.88258 7 4.4087 7 6V7.5H2.125C1.69402 7.5 1.2807 7.65804 0.975952 7.93934C0.671205 8.22064 0.5 8.60218 0.5 9V25.5C0.5 26.6935 1.01361 27.8381 1.92785 28.682C2.84209 29.5259 4.08207 30 5.375 30H21.625C22.9179 30 24.1579 29.5259 25.0721 28.682C25.9864 27.8381 26.5 26.6935 26.5 25.5V9C26.5 8.60218 26.3288 8.22064 26.024 7.93934C25.7193 7.65804 25.306 7.5 24.875 7.5ZM10.25 6C10.25 5.20435 10.5924 4.44129 11.2019 3.87868C11.8114 3.31607 12.638 3 13.5 3C14.362 3 15.1886 3.31607 15.7981 3.87868C16.4076 4.44129 16.75 5.20435 16.75 6V7.5H10.25V6ZM23.25 25.5C23.25 25.8978 23.0788 26.2794 22.774 26.5607C22.4693 26.842 22.056 27 21.625 27H5.375C4.94402 27 4.5307 26.842 4.22595 26.5607C3.92121 26.2794 3.75 25.8978 3.75 25.5V10.5H7V12C7 12.3978 7.17121 12.7794 7.47595 13.0607C7.7807 13.342 8.19402 13.5 8.625 13.5C9.05598 13.5 9.4693 13.342 9.77405 13.0607C10.0788 12.7794 10.25 12.3978 10.25 12V10.5H16.75V12C16.75 12.3978 16.9212 12.7794 17.226 13.0607C17.5307 13.342 17.944 13.5 18.375 13.5C18.806 13.5 19.2193 13.342 19.524 13.0607C19.8288 12.7794 20 12.3978 20 12V10.5H23.25V25.5Z" fill="#152E2E"/>
</svg>
