<svg width="12" height="12" viewBox="0 0 12 12" fill="none" xmlns="http://www.w3.org/2000/svg">
<path d="M10.5776 11.5333L7.06108 7.8C6.74711 8.06667 6.38604 8.27778 5.97788 8.43333C5.56971 8.58889 5.13539 8.66667 4.67489 8.66667C3.53413 8.66667 2.56877 8.24711 1.77882 7.408C0.988866 6.56889 0.59368 5.544 0.593262 4.33333C0.593262 3.12222 0.988447 2.09733 1.77882 1.25867C2.56919 0.42 3.53455 0.000444444 4.67489 0C5.81566 0 6.78102 0.419556 7.57097 1.25867C8.36092 2.09778 8.75611 3.12267 8.75653 4.33333C8.75653 4.82222 8.68327 5.28333 8.53675 5.71667C8.39023 6.15 8.19138 6.53333 7.9402 6.86667L11.4724 10.6167C11.5875 10.7389 11.6451 10.8889 11.6451 11.0667C11.6451 11.2444 11.5823 11.4 11.4567 11.5333C11.3416 11.6556 11.195 11.7167 11.0171 11.7167C10.8392 11.7167 10.6927 11.6556 10.5776 11.5333ZM4.67489 7.33333C5.45982 7.33333 6.12712 7.04156 6.67678 6.458C7.22644 5.87444 7.50106 5.16622 7.50064 4.33333C7.50064 3.5 7.22581 2.79156 6.67615 2.208C6.12649 1.62444 5.4594 1.33289 4.67489 1.33333C3.88996 1.33333 3.22267 1.62511 2.67301 2.20867C2.12335 2.79222 1.84873 3.50044 1.84915 4.33333C1.84915 5.16667 2.12398 5.87511 2.67364 6.45867C3.2233 7.04222 3.89038 7.33378 4.67489 7.33333Z" fill="#4B6258"/>
</svg>
